<?xml version="1.0" encoding="utf-8"?>
<!-- Generator: Adobe Illustrator 27.1.1, SVG Export Plug-In . SVG Version: 6.00 Build 0)  -->
<svg version="1.1" id="Capa_1" xmlns="http://www.w3.org/2000/svg" xmlns:xlink="http://www.w3.org/1999/xlink" x="0px" y="0px"
	 viewBox="0 0 500 500" style="enable-background:new 0 0 500 500;" xml:space="preserve">
<style type="text/css">
	.st0{fill:#EBEBEB;}
	.st1{fill:#FFFFFF;}
	.st2{fill:#E9001A;}
	.st3{fill:#A6D453;}
	.st4{fill:#D0000B;}
	.st5{fill:#455A64;}
	.st6{fill:#DBDBDB;}
	.st7{fill:#263238;}
	.st8{fill:#A6A6A6;}
	.st9{fill:#C7C7C7;}
	.st10{fill:#F7A9A0;}
	.st11{fill:#37474F;}
	.st12{opacity:0.2;fill:#D0000B;enable-background:new    ;}
</style>
<path class="st0" d="M448.3,449c0,11.3-88.8,20.4-198.3,20.4S51.7,460.3,51.7,449s88.8-20.4,198.3-20.4S448.3,437.8,448.3,449z"/>
<path class="st0" d="M0,0"/>
<path class="st1" d="M340.9,83.3v324.1c0,9.2-6.9,16.6-15.3,16.6H174.4c-8.5,0-15.3-7.4-15.3-16.6V83.3c0-18.7,6.9-19.6,15.3-19.6
	h30.3c1.8,0,3.2,2,3.2,4.5v1.1c0,5.8,3.2,5.8,7.1,5.8h70c3.9,0,7.1,0,7.1-5.8v-1.1c0-2.5,1.4-4.5,3.2-4.5h30.3
	C334.1,63.7,340.9,66.2,340.9,83.3z"/>
<path class="st1" d="M340.9,83.3v324.1c0,9.2-6.9,16.6-15.3,16.6H174.4c-8.5,0-15.3-7.4-15.3-16.6V83.3c0-18.7,6.9-19.6,15.3-19.6
	h30.3c1.8,0,3.2,2,3.2,4.5v1.1c0,5.8,3.2,5.8,7.1,5.8h70c3.9,0,7.1,0,7.1-5.8v-1.1c0-2.5,1.4-4.5,3.2-4.5h30.3
	C334.1,63.7,340.9,66.2,340.9,83.3z"/>
<path class="st2" d="M340.9,83.3v28.8H159V83.3c0-18.7,6.9-19.6,15.3-19.6h30.3c1.8,0,3.2,2,3.2,4.5v1.1c0,5.8,3.2,5.8,7.1,5.8H285
	c3.9,0,7.1,0,7.1-5.8v-1.1c0-2.5,1.4-4.5,3.2-4.5h30.3C334.1,63.7,340.9,66.2,340.9,83.3z"/>
<g>
	<path class="st3" d="M0,0"/>
	<path class="st3" d="M0,0"/>
	<path class="st3" d="M0,0"/>
	<path class="st3" d="M0,0"/>
</g>
<path class="st3" d="M0,0"/>
<path class="st3" d="M0,0"/>
<path class="st4" d="M175.5,369.3h67.5v54.6h-67.5V369.3z"/>
<path class="st0" d="M257.1,369.3h67.5v54.6h-67.5V369.3z M175.5,268.2h67.5v67.5h-67.5V268.2z"/>
<path class="st4" d="M257.1,268.2h67.5v67.5h-67.5V268.2z"/>
<path class="st0" d="M257.1,167.1h67.5v67.5h-67.5V167.1z"/>
<path class="st4" d="M175.5,167.1h67.5v67.5h-67.5V167.1z M175.5,241.1h7.4v7.4h-7.4V241.1z"/>
<path class="st5" d="M185.8,241.1h7.4v7.4h-7.4V241.1z"/>
<path class="st6" d="M196.1,241.1h7.4v7.4h-7.4V241.1z"/>
<path class="st7" d="M206.4,241.1h7.4v7.4h-7.4V241.1z"/>
<path class="st4" d="M257.1,241.1h7.4v7.4h-7.4V241.1z"/>
<path class="st5" d="M267.4,241.1h7.4v7.4h-7.4V241.1z"/>
<path class="st6" d="M277.7,241.1h7.4v7.4h-7.4V241.1z"/>
<path class="st6" d="M0,0"/>
<path class="st6" d="M0,0"/>
<path class="st6" d="M0,0"/>
<path class="st6" d="M0,0"/>
<path class="st6" d="M0,0"/>
<path class="st4" d="M175.5,342.2h7.4v7.4h-7.4V342.2z"/>
<path class="st5" d="M185.8,342.2h7.4v7.4h-7.4V342.2z"/>
<path class="st6" d="M196.1,342.2h7.4v7.4h-7.4V342.2z"/>
<path class="st7" d="M206.4,342.2h7.4v7.4h-7.4V342.2z"/>
<path class="st8" d="M257.1,342.2h7.4v7.4h-7.4V342.2z"/>
<path class="st5" d="M267.4,342.2h7.4v7.4h-7.4V342.2z"/>
<path class="st6" d="M277.7,342.2h7.4v7.4h-7.4V342.2z"/>
<path class="st6" d="M0,0"/>
<path class="st9" d="M159,112.2h181.9v37.2H159L159,112.2z"/>
<path class="st9" d="M0,0"/>
<path class="st5" d="M233.2,212.3c-1.6,0.5-46.2,0.6-47.9-0.4c-0.6-0.4-1.2-7.7-0.6-15.4l28.8,0.2c0,0,16.5,7.8,18.2,9.2
	S234.8,211.8,233.2,212.3L233.2,212.3z"/>
<path class="st5" d="M0,0"/>
<path class="st5" d="M0,0"/>
<path class="st1" d="M189.5,202c-3.4,0-3.4,5.2,0,5.2S192.9,202,189.5,202z"/>
<path class="st1" d="M0,0"/>
<path class="st1" d="M0,0"/>
<path class="st4" d="M233.2,313.4c-1.6,0.5-46.2,0.6-47.9-0.5c-0.6-0.4-1.2-7.7-0.6-15.3l28.8,0.2c0,0,16.5,7.8,18.2,9.1
	S234.8,312.9,233.2,313.4L233.2,313.4z"/>
<path class="st3" d="M0,0"/>
<path class="st3" d="M0,0"/>
<path class="st3" d="M0,0"/>
<path class="st4" d="M314.8,212.3c-1.6,0.5-46.2,0.6-47.9-0.4c-0.6-0.4-1.2-15.4-0.6-23l28.8,0.2c0,0,0.2,7.7,0.5,7.9
	c2.9,1.4,16.1,7.7,17.6,8.9C315.1,207.3,316.4,211.8,314.8,212.3L314.8,212.3z"/>
<path class="st3" d="M0,0"/>
<path class="st3" d="M0,0"/>
<path class="st3" d="M0,0"/>
<path class="st5" d="M233.2,414.5c-1.6,0.5-46.2,0.6-47.9-0.5c-0.6-0.4-1.2-15.4-0.6-23l28.8,0.2c0,0,0.2,7.7,0.6,7.9
	c2.9,1.4,16.1,7.6,17.6,8.9C233.4,409.5,234.8,414,233.2,414.5L233.2,414.5z"/>
<path class="st5" d="M0,0"/>
<path class="st4" d="M314.8,414.5c-1.6,0.5-46.2,0.6-47.9-0.5c-0.6-0.4-1.2-26-0.6-33.6l28.8,0.2c0,0,0.2,18.4,0.5,18.6
	c2.9,1.4,16.1,7.6,17.6,8.9C315.1,409.5,316.4,414,314.8,414.5L314.8,414.5z"/>
<path class="st3" d="M0,0"/>
<path class="st10" d="M351.8,418.3h-0.2v-0.1L351.8,418.3z"/>
<path class="st6" d="M348,349.7l-2.4,14.2l-16.1,86.8H327l11.7-86.8l1.7-14.2H348z"/>
<path class="st8" d="M340.4,349.7h7.6l-2.4,14.2h-7L340.4,349.7z"/>
<path class="st6" d="M398.5,450.8h-2.6L379.8,364l-2.4-14.2h7.6l1.7,14.2L398.5,450.8L398.5,450.8z"/>
<path class="st8" d="M385.1,349.7l1.7,14.2h-7l-2.4-14.2H385.1z"/>
<path class="st6" d="M446.7,450.8h-2.6L428,364l-2.4-14.2h7.6L435,364L446.7,450.8L446.7,450.8z"/>
<path class="st8" d="M435,364h-7l-2.4-14.2h7.6L435,364z"/>
<path class="st6" d="M442.6,356.4H324.8V344h44.1l14.8-64.6h54.4L442.6,356.4L442.6,356.4z"/>
<path class="st8" d="M442.6,356.4h-6.4l-4.2-77.1h6.1L442.6,356.4L442.6,356.4z"/>
<path class="st8" d="M0,0"/>
<path class="st8" d="M0,0"/>
<path class="st4" d="M323.2,461.1c2.3,0.2,63.4-13.5,65.4-15.5c0.8-0.7-0.7-9.8-2.8-20.6c0-0.1,0-0.2-0.1-0.3l-39.5,8.4l0.2,0.7
	c0,0-21,15.7-23,18.1S320.9,460.8,323.2,461.1L323.2,461.1z"/>
<path class="st3" d="M0,0"/>
<path class="st3" d="M0,0"/>
<path class="st3" d="M0,0"/>
<path class="st3" d="M0,0"/>
<path class="st11" d="M343.4,434l42.1-9.9c0,0-35.1-80.5-32-84.6c1.5-2,40.7-2.6,53.2-13.2c16.2-13.7,5.3-34.7,5.3-34.7l-43.8-1.3
	c0,0,0.5,9.1-1.2,10.5c-1.1,0.9-53.3,5.3-59,22.9C301,345.3,343.4,434,343.4,434z"/>
<path class="st11" d="M0,0"/>
<path class="st11" d="M0,0"/>
<path class="st11" d="M0,0"/>
<path class="st4" d="M259.6,463.6c2.2,0.7,64.9,0.4,67.2-1.1c0.9-0.6,1.4-9.7,1.7-20.7v-0.3l-40.4-0.3v0.7c0,0-23.9,10.8-26.4,12.8
	S257.4,462.9,259.6,463.6L259.6,463.6z"/>
<path class="st3" d="M0,0"/>
<path class="st3" d="M0,0"/>
<path class="st3" d="M0,0"/>
<path class="st3" d="M0,0"/>
<path class="st3" d="M0,0"/>
<path class="st3" d="M0,0"/>
<path class="st3" d="M0,0"/>
<path class="st3" d="M0,0"/>
<path class="st3" d="M0,0"/>
<path class="st3" d="M0,0"/>
<path class="st3" d="M0,0"/>
<path class="st10" d="M383.2,249.8c-5.5,18.4-20.3,43.4-27.8,44.6c-3.6,0.6-9.8,2.4-15.1-1c-11.5-7.4-22.6-23.2-25.8-32.8
	c-1.1-3.4,14.7-13.5,17.6-11c6.9,5.8,15.6,17.8,16.6,17.5c3.8-0.9,16.9-15.6,26.1-26C385.9,228.7,385.4,242.5,383.2,249.8
	L383.2,249.8z M311.4,242.7c0.7-7.3,2-9.1-0.6-15.6c-1.8-4.3,0.2-7.2,3.9-4.1c6,5.1,7.1,14.7,6.5,18.2L311.4,242.7z M0,0"/>
<path class="st10" d="M312,241.1c1.9-2.2,6-6.6,10.6-9.2c5.1-2.8,15.7-6.8,17.8-3c1.5,2.8-2.4,4.7-2.4,4.7s4.7-0.7,5.5,2.1
	c0.7,2.6-2.4,3.8-2.4,3.8s3,0.1,3.2,2.6c0.3,3.1-6,2.5-8.4,5.9C335.2,248.8,312,241.1,312,241.1L312,241.1z"/>
<path class="st10" d="M0,0"/>
<path class="st10" d="M0,0"/>
<path class="st10" d="M0,0"/>
<path class="st10" d="M0,0"/>
<path class="st4" d="M363.3,301.5c1.3,1.4,59.8,11.7,60.1,11.3c0.9-1-6.3-57.1-28.5-77.8c-3.9-3.6-11-2.7-14.2-0.9
	c-1.6,0.9-7.3,8.9-9,15.8S362.5,300.6,363.3,301.5L363.3,301.5z"/>
<path class="st3" d="M0,0"/>
<path class="st3" d="M398.8,236.4c19.8,10.1,42.6,32.8,41.3,40.4c-1.5,8.4-30-5.8-29.7-7.1c0.2-1.1-5.7-10.1-14.3-23.1
	C387.4,233.4,393.9,233.9,398.8,236.4L398.8,236.4z"/>
<path class="st12" d="M398.8,236.4c19.8,10.1,42.6,32.8,41.3,40.4c-1.5,8.4-30-5.8-29.7-7.1c0.2-1.1-5.7-10.1-14.3-23.1
	C387.4,233.4,393.9,233.9,398.8,236.4L398.8,236.4z"/>
<path class="st10" d="M440.1,276.8c-1.7,5.9-10.5,9.8-31.7,21.8c-2.9,1.7-20.2-15.9-17.2-17.8c3.8-2.4,19.2-11.1,20.4-11.6
	C421.8,265.1,441.3,272.8,440.1,276.8z"/>
<path class="st10" d="M0,0"/>
<path class="st10" d="M0,0"/>
<path class="st3" d="M390.9,278.8c0,0,24.4,18.6,24.6,18.5s24.2-14.1,24.6-20.5s-19.4-11-28.4-7.5S390.9,278.8,390.9,278.8
	L390.9,278.8z"/>
<path class="st12" d="M390.9,278.8c0,0,24.4,18.6,24.6,18.5s24.2-14.1,24.6-20.5s-19.4-11-28.4-7.5S390.9,278.8,390.9,278.8
	L390.9,278.8z"/>
<path d="M0,0"/>
<path class="st11" d="M378.5,234.9c-2.5,2.2-3.4,9.6,1.4,11s11.4-6.3,12.1-10.5S384,230,378.5,234.9z"/>
<path class="st11" d="M0,0"/>
<path class="st11" d="M0,0"/>
<path class="st10" d="M389.7,203.4c2.2,4.9,1.6,19.9-1.6,23.7c-4.6,5.5-13.1,7.1-18,1.4c-4.8-5.6-3.5-25.1,0.1-28.7
	C375.5,194.6,386.3,196.3,389.7,203.4z"/>
<path class="st7" d="M376.3,214.3C376.3,214.3,376.4,214.3,376.3,214.3c0,1.1,0.1,2.3,1,2.6v0.1
	C376.2,216.8,376.1,215.3,376.3,214.3L376.3,214.3z"/>
<path class="st7" d="M377.2,213.3c1.6-0.1,1.6,3.2,0.1,3.3S375.9,213.4,377.2,213.3z M370.7,214.5
	C370.7,214.5,370.6,214.5,370.7,214.5c-0.1,1.1-0.2,2.3-1.1,2.6c0,0,0,0.1,0,0C370.7,217,370.9,215.4,370.7,214.5z M0,0 M0,0 M0,0
	 M0,0 M0,0 M0,0 M0,0"/>
<path class="st3" d="M101.4,375.9c6.3-13,17.5-19.8,30-16s14.5,21.2,5.1,25.6s-18.7-8.5-23.6-11.1S101.4,375.9,101.4,375.9
	L101.4,375.9z"/>
<path class="st3" d="M0,0"/>
<path class="st3" d="M0,0"/>
<path class="st3" d="M96.1,376.2c0,0-9-11.3-26.3-7.3c-16.5,3.8-24.1,34-7.4,37.7s13.7-24.4,19.8-29.1C86.6,374,93,374.7,96.1,376.2
	z"/>
<path class="st3" d="M0,0"/>
<path class="st3" d="M0,0"/>
<path class="st3" d="M87.6,361.1c0,0-1.7-20.3-16.8-26.9c-12.6-5.5-19.8,8.7-10.9,17.3C67.1,358.6,78.7,355.4,87.6,361.1L87.6,361.1
	z"/>
<path class="st3" d="M0,0"/>
<path class="st3" d="M0,0"/>
<path class="st3" d="M99.3,357.4c0.1,0.9,2.3-7.4,15-14.7c11.6-6.6,25.4-23.9,14.1-34.9C119.2,299.1,95.1,318.3,99.3,357.4z"/>
<path class="st3" d="M0,0"/>
<path class="st3" d="M0,0"/>
<path class="st5" d="M77,407.8l0.9,10.8l2.8,32.9h29.9l2.8-32.9l0.9-10.8L77,407.8L77,407.8z"/>
<path class="st7" d="M77,407.8l0.9,10.8h35.4l0.9-10.8H77z"/>
<path class="st5" d="M117.2,413.8H74.1v-10.4h43.1V413.8z"/>
</svg>
